PathFileType	4	(X/Y/Z)	pose_F01_0-96.trc
DataRate	CameraRate	NumFrames	NumMarkers	Units	OrigDataRate	OrigDataStartFrame	OrigNumFrames
30	30	8	21	m	30	84	96
Frame#	Time	CHip			RHip			RKnee			RAnkle			RBigToe			RSmallToe			RHeel			LHip			LKnee			LAnkle			LBigToe			LSmallToe			LHeel			Neck			Nose			RShoulder			RElbow			RWrist			LShoulder			LElbow			LWrist			
		X1	Y1	Z1	X2	Y2	Z2	X3	Y3	Z3	X4	Y4	Z4	X5	Y5	Z5	X6	Y6	Z6	X7	Y7	Z7	X8	Y8	Z8	X9	Y9	Z9	X10	Y10	Z10	X11	Y11	Z11	X12	Y12	Z12	X13	Y13	Z13	X14	Y14	Z14	X15	Y15	Z15	X16	Y16	Z16	X17	Y17	Z17	X18	Y18	Z18	X19	Y19	Z19	X20	Y20	Z20	X21	Y21	Z21	
84	2.8	-0.16459171399583494	1.8245548327408267	-0.5101539231636717	-0.17718064749422216	1.822177679306048	-0.45099932972354634	-0.16190935079509877	1.700128958554945	-0.4339566163258891													-0.1497594701835434	1.8270561346209362	-0.566124772843066	-0.1436428475108583	1.7037604325754703	-0.5400410324124044	-0.14030069103378964	1.5798445760521571	-0.5196032822981106	-0.18204768807861577	1.5485890434852685	-0.5419301514977536	-0.17229717107507983	1.549329417319065	-0.5511740095577707	-0.13258410588012118	1.5630498150155716	-0.5127776113447488	-0.1555452544740257	1.9763856149794468	-0.5322110365046736	-0.18573587946863238	2.039864596553882	-0.549004730925418	-0.17184651319389904	1.9724395183957517	-0.44874504235031637	-0.18615134039296113	1.891779660439234	-0.39154358345451534	-0.20280855606745612	1.8221444712771913	-0.35633011806883724	-1.7248869070702721	1.889647790116732	1.134654787170135	-0.12351223405927825	1.8962167379929342	-0.6375893081243637	-0.12129636183962557	1.825672266300393	-0.6650154540549276
85	2.8333333333333335	-0.16639105210059174	1.825836954643586	-0.5081091945043817	-0.17620928316418877	1.8246392338343418	-0.44800898598866734	-0.16403440565963195	1.7013600451129771	-0.4316331974409386													-0.15182572704504158	1.827002749358165	-0.5638000180326772	-0.14067212544880933	1.7037495253221302	-0.538903533783611	-0.13932441826437725	1.5796137961245227	-0.5162685004624584	-0.18275891142240108	1.5466127714190783	-0.5367147081129168	-0.17108087083205464	1.5504142251421384	-0.5484610477646723	-0.13088298236284726	1.5621170306395296	-0.5142947544271513	-0.15553039147564476	1.9764724223329921	-0.5322296351670045	-0.18575824318593342	2.041240612346365	-0.5493681945694489	-0.17471293660229842	1.9738747526096663	-0.45009832923806714	-0.18717314948208086	1.8984295341226578	-0.38707244141279057	-0.20355852705579766	1.8294312751098032	-0.3336956355710327	-1.7347510119778422	1.8897230425465343	1.152213339803012	-0.11757283664281987	1.9029899392888159	-0.6488133075213828	-0.11548093620348863	1.8342484693292178	-0.6887701695553216
86	2.8666666666666667	-0.16639925591516289	1.8259759286647101	-0.5080022209580268	-0.17431357353317478	1.8242748693003052	-0.44128687706770087	-0.16402343113232962	1.701141972328639	-0.43156639021916965													-0.15180391227302253	1.8269550591315045	-0.5637615511016684	-0.1398135516995262	1.7036771988896617	-0.535640209979593	-0.1392952426283832	1.5797812065885586	-0.5163911694091052	-0.18045223213653372	1.548245675697586	-0.5394872375556761	-0.1689265315520015	1.5504380881038142	-0.550674088582538	-0.13055038413949474	1.5632657035631383	-0.5149853981509108	-0.15643519295889619	1.9765990387609707	-0.5352632711668434	-0.18571856844703097	2.040123340626984	-0.5488736337338972	-0.17469835564195238	1.9738800298422787	-0.45014965922778266	-0.1908483066831223	1.900822331665654	-0.3828189905956986	-0.20756935720253247	1.8304181742491383	-0.31516377729302414	-1.7346649348849965	1.8897392701649098	1.1520602569030933	-0.11991987449977201	1.9086677107918606	-0.6592260180703682	-0.1096691133952584	1.844070875338144	-0.7125363204032671
87	2.9	-0.16663215393447436	1.8287547249301015	-0.508440208764247	-0.17549142471024975	1.827393694129243	-0.44508843400361336	-0.16125246216295078	1.701832827669736	-0.43060217542406365													-0.1519527037238276	1.8287520693543642	-0.5639569338066283	-0.14268914536183347	1.706433758796982	-0.5370489583159014	-0.13930647651639497	1.5796490403676011	-0.516301149147536	-0.18041757361648736	1.5478193212133116	-0.5394495532513017	-0.16896224778525154	1.5502466673360333	-0.5506661708945109	-0.13073159964936815	1.56402691282049	-0.514949950179987	-0.15752381271069357	1.9764878887355406	-0.5299478643960529	-0.1857210935332639	2.041529977474819	-0.5492533613798144	-0.17459486969864701	1.9750227273023198	-0.45006710457571936	-0.18887641744237116	1.9071708245268892	-0.3774715009183731	-0.20851510052316066	1.8410869953788471	-0.31077651341334095	-1.7348162080101255	1.8899062744895148	1.1522757915876758	-0.12055501747363787	1.913542439046958	-0.6633074340682946	-0.10686404519983239	1.8534195676927196	-0.7165220587425942
88	2.933333333333333	-0.16689280157991218	1.8315140582839808	-0.508747969727572	-0.1767421273021743	1.8276450687426264	-0.4484376367533782	-0.1621573280048125	1.7016609169231691	-0.43380462917918194													-0.15221935415357327	1.8314790607776574	-0.5640961438884313	-0.14110916497938902	1.7038947818645909	-0.5384087407885111	-0.1392935038818284	1.579779481831752	-0.516393357153742	-0.18068743084832806	1.549615943567194	-0.5392522791717533	-0.16867176987188262	1.5517827269337148	-0.5513828252473886	-0.13053958112049216	1.5632742811673537	-0.5150269330228217	-0.15556436170749208	1.9765810900715381	-0.5320666040276207	-0.18489435346302974	2.0413765479555734	-0.546277225417177	-0.17473099356425345	1.9739460782045437	-0.4500875645775314	-0.19012154787209867	1.9070035336992557	-0.38095795736847476	-0.2055497148384962	1.842929815026968	-0.301089248829688	-1.7447186716529453	1.8899653298276697	1.1699036772334839	-0.12158428036515886	1.9135894872902712	-0.6665679889411894	-0.10709429519740168	1.8550396467428887	-0.7284648840371065
89	2.966666666666667	-0.16649098680594426	1.8272995389982833	-0.5082593705926151	-0.17644649019908512	1.8246794341004242	-0.4479781221456943	-0.16403840914619044	1.7013451808071678	-0.4315710964905962													-0.1519123280987123	1.8285444535706472	-0.5639080504318756	-0.14163830065109204	1.7068148256580635	-0.5426078089604905	-0.13916129384964832	1.5820974269349664	-0.5166380062215766	-0.18050530114439375	1.5482451122403937	-0.5394776143397426	-0.16864545009870874	1.5516392331647686	-0.5513250573518906	-0.13048065285876384	1.5633168840265448	-0.5149614386189554	-0.15749693559747846	1.9765081944133338	-0.5298717486359261	-0.18486487943395064	2.0413618103938096	-0.5462931740338864	-0.17474427197000794	1.9739105501898913	-0.4500725062715532	-0.1891008003482059	1.9070228995365468	-0.37772386670197455	-0.20509380592933202	1.8416204125130193	-0.3066988957553836	-1.7447276701213927	1.8899620181237755	1.169926298575321	-0.12382198621532722	1.9108377025320633	-0.6638568720885322	-0.11169819383693821	1.8490252762908868	-0.7197785121359673
90	3.0	-0.16692946322972604	1.828904173618523	-0.508349132451316	-0.1767661299998547	1.8273668944530757	-0.4482926228892739	-0.16224794156584524	1.7023660697291303	-0.43382316608421434													-0.15218249524998495	1.831432047881189	-0.564200993410324	-0.14184528940685073	1.705425511243892	-0.5422594088713043	-0.14028717312241612	1.5798502364101696	-0.5196147007901336	-0.18279978666324617	1.5491412806611673	-0.5372822203003758	-0.17110934132609384	1.550678483174313	-0.5485403473049282	-0.13159435421222312	1.563773390811241	-0.5180981678395771	-0.1546392486876298	1.976514474831233	-0.5289267253239381	-0.18488063907618874	2.041418403695144	-0.5462692825363108	-0.17381354848179864	1.9737975364071896	-0.4469766091425895	-0.1854514197454227	1.9036022914289195	-0.3815459547160002	-0.19786034568913416	1.8339722707717279	-0.32289990830606147	-1.7448184395861581	1.8898527750600074	1.1701032853181077	-0.12286397150052397	1.905943064062752	-0.6569766975611305	-0.11972492233146455	1.8420199272486195	-0.7024415340959245
91	3.033333333333333	-0.166707999596988	1.8259400583317562	-0.5080014889445731	-0.17747761471383092	1.8243400139771049	-0.4424239951387058	-0.16236055298815052	1.700497355394007	-0.43336542854652493													-0.15209588179729508	1.8272102986225955	-0.5637510133568377	-0.14020509666720704	1.70375722093052	-0.5351266622356635	-0.13945088973316663	1.5806430347099034	-0.5158764025852373	-0.17963424765425615	1.5491754944127567	-0.5360013232601891	-0.16855107348190126	1.551485652913975	-0.5513150950982427	-0.132930594344651	1.564967950251881	-0.5123071933213437	-0.15478436704053666	1.9753281652764745	-0.5289316331993293	-0.18486907314415554	2.0414546361680834	-0.5462346500961375	-0.1737730067066153	1.972494767806717	-0.44651740955211033	-0.17989661161278034	1.8959567557547097	-0.39582848978962076	-0.18762104423021847	1.8256551534774934	-0.3386950788647354	-1.7445465253104806	1.8897866931958696	1.1696596764638354	-0.1282782392639513	1.901676490163891	-0.6457952332262489	-0.129969806404797	1.8327804868860413	-0.686144220885281
